<svg xmlns="http://www.w3.org/2000/svg" width="1024" height="1024" viewBox="0 0 64 64" role="img" aria-labelledby="title desc">
  <title id="title">Dedicated Turn Lanes 1+1 to 2+1 default icon, official road perspective</title>
  <desc id="desc">A default icon concept built on the official Cities Skylines II Lighting icon road slab perspective, replacing the lamp posts with lane markings.</desc>

  <defs>
    <clipPath id="road-face-clip">
      <path d="M1212.373-1122.247l29.686 25.1 23.11-13.863-30.016-25.114Z" transform="translate(-1206.995 1147.886)"/>
    </clipPath>
  </defs>

  <g id="road-slab">
    <path d="M733.426-302.733l29.61 25.369 23.135-14.243v-1.623l-52.745-11.55Z" transform="translate(-728.04 330.13)" fill="#c4c4c4"/>
    <path d="M1212.373-1122.247l29.686 25.1 23.11-13.863-30.016-25.114Z" transform="translate(-1206.995 1147.886)" fill="#949494"/>
  </g>

  <g clip-path="url(#road-face-clip)">
    <g transform="matrix(0.29686 0.251 0.2278 -0.13877 5.378 25.639)">
      <path d="M0 33H46" fill="none" stroke="#f5f5eb" stroke-width="5.4" stroke-linecap="round" stroke-dasharray="13 16" opacity="0.96"/>
      <path d="M0 66H46C58 66 62 55 74 52C84 50 92 48 100 48" fill="none" stroke="#ffc916" stroke-width="6.4" stroke-linecap="butt" stroke-linejoin="round"/>
      <g fill="#f5f5eb" stroke="#f5f5eb" stroke-width="4.2" stroke-linecap="round" stroke-linejoin="round" opacity="0.96">
        <path d="M39 46H24C19 46 17 49 17 53" fill="none"/>
        <path d="M17 58L11 50H23Z" stroke="none"/>
      </g>
    </g>
  </g>
</svg>
